<svg width="12" height="12" viewBox="0 0 12 12" fill="none" xmlns="http://www.w3.org/2000/svg">
<path d="M11.5 11H2.5C2.10218 11 1.72064 10.842 1.43934 10.5607C1.15804 10.2794 1 9.89782 1 9.5V0.5C1 0.367392 0.947322 0.240215 0.853553 0.146447C0.759785 0.0526784 0.632608 0 0.5 0C0.367392 0 0.240215 0.0526784 0.146447 0.146447C0.0526784 0.240215 0 0.367392 0 0.5V9.5C0.000793929 10.1628 0.264441 10.7982 0.73311 11.2669C1.20178 11.7356 1.8372 11.9992 2.5 12H11.5C11.6326 12 11.7598 11.9473 11.8536 11.8536C11.9473 11.7598 12 11.6326 12 11.5C12 11.3674 11.9473 11.2402 11.8536 11.1464C11.7598 11.0527 11.6326 11 11.5 11Z" fill="white"/>
<path d="M2.99999 10C3.1326 10 3.25978 9.94733 3.35355 9.85356C3.44731 9.7598 3.49999 9.63262 3.49999 9.50001V6.00001C3.49999 5.8674 3.44731 5.74022 3.35355 5.64646C3.25978 5.55269 3.1326 5.50001 2.99999 5.50001C2.86738 5.50001 2.74021 5.55269 2.64644 5.64646C2.55267 5.74022 2.49999 5.8674 2.49999 6.00001V9.50001C2.49999 9.63262 2.55267 9.7598 2.64644 9.85356C2.74021 9.94733 2.86738 10 2.99999 10Z" fill="white"/>
<path d="M5.00001 5.00003V9.50003C5.00001 9.63264 5.05269 9.75981 5.14645 9.85358C5.24022 9.94735 5.3674 10 5.50001 10C5.63262 10 5.75979 9.94735 5.85356 9.85358C5.94733 9.75981 6.00001 9.63264 6.00001 9.50003V5.00003C6.00001 4.86742 5.94733 4.74024 5.85356 4.64647C5.75979 4.55271 5.63262 4.50003 5.50001 4.50003C5.3674 4.50003 5.24022 4.55271 5.14645 4.64647C5.05269 4.74024 5.00001 4.86742 5.00001 5.00003Z" fill="white"/>
<path d="M7.5 6.5V9.5C7.5 9.63261 7.55268 9.75979 7.64645 9.85355C7.74021 9.94732 7.86739 10 8 10C8.13261 10 8.25979 9.94732 8.35355 9.85355C8.44732 9.75979 8.5 9.63261 8.5 9.5V6.5C8.5 6.36739 8.44732 6.24021 8.35355 6.14645C8.25979 6.05268 8.13261 6 8 6C7.86739 6 7.74021 6.05268 7.64645 6.14645C7.55268 6.24021 7.5 6.36739 7.5 6.5Z" fill="white"/>
<path d="M9.99999 4.49998V9.49998C9.99999 9.63259 10.0527 9.75977 10.1464 9.85353C10.2402 9.9473 10.3674 9.99998 10.5 9.99998C10.6326 9.99998 10.7598 9.9473 10.8535 9.85353C10.9473 9.75977 11 9.63259 11 9.49998V4.49998C11 4.36737 10.9473 4.2402 10.8535 4.14643C10.7598 4.05266 10.6326 3.99998 10.5 3.99998C10.3674 3.99998 10.2402 4.05266 10.1464 4.14643C10.0527 4.2402 9.99999 4.36737 9.99999 4.49998Z" fill="white"/>
<path d="M3.00001 4.49998C3.13261 4.49995 3.25976 4.44726 3.35351 4.35348L5.14651 2.56048C5.24181 2.46969 5.36839 2.41905 5.50001 2.41905C5.63163 2.41905 5.75821 2.46969 5.85351 2.56048L6.93951 3.64648C7.2208 3.92769 7.60226 4.08566 8.00001 4.08566C8.39775 4.08566 8.77922 3.92769 9.06051 3.64648L11.8535 0.853481C11.9446 0.75918 11.995 0.632879 11.9938 0.50178C11.9927 0.370682 11.9401 0.245276 11.8474 0.152571C11.7547 0.0598674 11.6293 0.00728297 11.4982 0.00614376C11.3671 0.00500455 11.2408 0.0554018 11.1465 0.146481L8.35351 2.93898C8.25974 3.03272 8.13259 3.08537 8.00001 3.08537C7.86743 3.08537 7.74027 3.03272 7.64651 2.93898L6.56051 1.85348C6.27922 1.57227 5.89775 1.4143 5.50001 1.4143C5.10226 1.4143 4.7208 1.57227 4.43951 1.85348L2.64651 3.64648C2.5766 3.71641 2.529 3.80549 2.50972 3.90247C2.49043 3.99944 2.50033 4.09996 2.53817 4.19131C2.576 4.28266 2.64007 4.36074 2.72228 4.41568C2.80448 4.47062 2.90113 4.49996 3.00001 4.49998Z" fill="white"/>
</svg>
