<svg width="40" height="34" viewBox="0 0 40 34" fill="none" xmlns="http://www.w3.org/2000/svg">
<path d="M16.4633 24.2033C16.9276 24.6679 17.4789 25.0365 18.0858 25.288C18.6926 25.5395 19.343 25.6689 19.9999 25.6689C20.6568 25.6689 21.3072 25.5395 21.9141 25.288C22.5209 25.0365 23.0723 24.6679 23.5366 24.2033L28.8883 18.8517C29.1752 18.5343 29.3291 18.1188 29.3181 17.6911C29.3071 17.2634 29.1321 16.8563 28.8293 16.5541C28.5264 16.2519 28.119 16.0777 27.6912 16.0677C27.2635 16.0576 26.8483 16.2124 26.5316 16.5L21.6549 21.3783L21.6666 1.66667C21.6666 1.22464 21.491 0.800716 21.1784 0.488155C20.8659 0.175595 20.4419 0 19.9999 0C19.5579 0 19.134 0.175595 18.8214 0.488155C18.5089 0.800716 18.3333 1.22464 18.3333 1.66667L18.3183 21.3466L13.4683 16.5C13.1555 16.1875 12.7315 16.012 12.2893 16.0121C11.8472 16.0123 11.4233 16.1881 11.1108 16.5008C10.7982 16.8136 10.6228 17.2376 10.6229 17.6797C10.6231 18.1219 10.7989 18.5458 11.1116 18.8583L16.4633 24.2033Z" fill="#373737"/>
<path d="M38.3333 20.6667C37.8913 20.6667 37.4674 20.8423 37.1548 21.1549C36.8422 21.4675 36.6666 21.8914 36.6666 22.3334V29.0001C36.6666 29.4421 36.4911 29.866 36.1785 30.1786C35.8659 30.4911 35.442 30.6667 35 30.6667H5C4.55797 30.6667 4.13405 30.4911 3.82149 30.1786C3.50893 29.866 3.33333 29.4421 3.33333 29.0001V22.3334C3.33333 21.8914 3.15774 21.4675 2.84518 21.1549C2.53262 20.8423 2.10869 20.6667 1.66667 20.6667C1.22464 20.6667 0.800715 20.8423 0.488155 21.1549C0.175595 21.4675 0 21.8914 0 22.3334L0 29.0001C0 30.3262 0.526784 31.5979 1.46447 32.5356C2.40215 33.4733 3.67392 34.0001 5 34.0001H35C36.3261 34.0001 37.5978 33.4733 38.5355 32.5356C39.4732 31.5979 40 30.3262 40 29.0001V22.3334C40 21.8914 39.8244 21.4675 39.5118 21.1549C39.1993 20.8423 38.7753 20.6667 38.3333 20.6667Z" fill="#373737"/>
</svg>
