<svg width="157" height="69" viewBox="0 0 157 69" fill="none" xmlns="http://www.w3.org/2000/svg">
<path fill-rule="evenodd" clip-rule="evenodd" d="M49.9505 14.9613C53.6117 8.48755 58.4668 1.99992 66.5 1.99992C72.8485 1.99992 78.6434 7.17048 83.0495 14.9613C87.4948 22.8215 91.523 34.3214 94.9243 49.3123C95.2907 50.9273 94.2923 52.546 92.6799 52.9215C91.0501 53.301 89.4475 52.2644 89.0811 50.6502C85.7411 35.9336 81.8761 25.0877 77.8474 17.9641C73.6315 10.5096 69.3789 8.05272 66.5 8.05272C60.8422 8.05272 57.6607 13.5293 55.1526 17.9641C51.1239 25.0877 47.2589 35.9336 43.9189 50.6502C43.5525 52.2644 41.9499 53.301 40.3201 52.9215C38.7077 52.546 37.7093 50.9273 38.0757 49.3123C41.477 34.3214 45.5052 22.8215 49.9505 14.9613Z" fill="#0083F5"/>
<path fill-rule="evenodd" clip-rule="evenodd" d="M18.8889 33.9999C15.3865 33.9999 12.0765 35.2722 9.676 37.4628C7.28465 39.6452 6 42.5431 6 45.4999C6 48.4568 7.28465 51.3547 9.676 53.537C12.0765 55.7277 15.3865 56.9999 18.8889 56.9999V62.9999C13.9633 62.9999 9.19047 61.2168 5.63149 57.9689C2.06336 54.7127 0 50.2344 0 45.4999C0 40.7655 2.06336 36.2871 5.63149 33.0309C9.19047 29.783 13.9633 27.9999 18.8889 27.9999H19.5C21.1569 27.9999 22.5 29.3431 22.5 30.9999C22.5 32.6568 21.1569 33.9999 19.5 33.9999H18.8889Z" fill="#373737"/>
<path d="M114.417 52.3758L114.43 52.3726L114.443 52.369C115.229 52.1576 115.983 51.8437 116.704 51.4303C117.961 50.7102 118.172 49.1658 117.565 48.0671C117.142 47.3037 116.423 46.8774 115.708 46.6979C114.889 46.4922 114.116 46.6269 113.327 46.8657C112.59 47.0583 111.857 47.1534 111.128 47.1534C109.946 47.1534 109.11 46.9363 108.541 46.5916C107.949 46.2062 107.511 45.7302 107.207 45.1606C106.877 44.4965 106.649 43.7476 106.532 42.9051C106.45 41.9903 106.408 41.0531 106.408 40.0934V21.7884H114.573C116.131 21.7884 117.393 20.5259 117.393 18.9684C117.393 17.411 116.131 16.1484 114.573 16.1484H106.408V9.47842C106.408 7.74148 105 6.33342 103.263 6.33342C101.526 6.33342 100.118 7.74148 100.118 9.47842V16.1484H97.1534C95.5959 16.1484 94.3334 17.411 94.3334 18.9684C94.3334 20.5259 95.5959 21.7884 97.1534 21.7884H100.118V40.8084C100.118 42.5571 100.275 44.1685 100.596 45.6371L100.598 45.6437C100.929 47.1089 101.504 48.3957 102.342 49.4799L102.349 49.4888L102.356 49.4976C103.208 50.5493 104.321 51.3568 105.664 51.9326C107.037 52.5209 108.675 52.7934 110.543 52.7934C111.95 52.7934 113.243 52.6574 114.417 52.3758Z" fill="#373737"/>
<path d="M143 65.8247C143 68.2653 145.193 69.7907 146.948 68.5704L156 62.9332C156.979 62.2523 157 61.0786 157 59.9999C157 58.3431 155.749 56.9999 154.205 56.9999H94.9243V62.9999L143 62.9999V65.8247Z" fill="#373737"/>
<path fill-rule="evenodd" clip-rule="evenodd" d="M129.355 52.2361L129.373 52.241L129.39 52.2453C130.9 52.6112 132.452 52.7934 134.046 52.7934C136.663 52.7934 139.079 52.3873 141.284 51.5607C142.955 50.9463 144.477 49.9907 145.85 48.7111L145.989 49.881C146.159 51.3197 147.379 52.4034 148.827 52.4034C150.406 52.4034 151.686 51.1236 151.686 49.5449V32.8134C151.686 30.4935 151.441 28.3147 150.945 26.2811C150.485 24.217 149.675 22.3995 148.503 20.848C147.359 19.2319 145.838 17.9798 143.965 17.0901C142.063 16.1866 139.784 15.7584 137.166 15.7584C135.716 15.7584 134.248 15.8943 132.762 16.1645L132.757 16.1655C131.276 16.4432 129.864 16.9291 128.523 17.6221C127.206 18.2814 126.05 19.1537 125.06 20.2361C124.818 20.4896 124.593 20.7578 124.385 21.0404C123.633 22.0589 123.729 23.2393 124.321 24.1091C124.889 24.9444 125.898 25.4934 127.02 25.4934C128.352 25.4934 129.414 24.7052 130.104 23.8754C130.278 23.6658 130.465 23.4752 130.667 23.3027L130.671 23.2991C131.243 22.8033 131.842 22.4307 132.468 22.1718C133.177 21.8966 133.905 21.7001 134.653 21.5818C135.472 21.4591 136.267 21.3984 137.036 21.3984C138.658 21.3984 139.941 21.6828 140.931 22.1962L140.937 22.1996L140.944 22.2028C142.02 22.7408 142.864 23.4593 143.5 24.3564C144.151 25.2752 144.621 26.3615 144.899 27.6321L144.902 27.6466L144.906 27.661C145.157 28.6654 145.313 29.724 145.37 30.8384H135.151C133.397 30.8384 131.703 31.0179 130.072 31.3794C128.405 31.7049 126.902 32.2892 125.575 33.1422L125.568 33.1467L125.561 33.1514C124.253 34.0236 123.195 35.183 122.386 36.6104C121.542 38.0998 121.151 39.9069 121.151 41.9784C121.151 43.7207 121.505 45.3279 122.232 46.7806L122.241 46.7987L122.25 46.8165C123.012 48.197 124.018 49.349 125.266 50.2608C126.492 51.1568 127.857 51.8148 129.355 52.2361ZM130.566 37.1284L130.55 37.1343C129.629 37.4656 128.866 37.9932 128.245 38.7242C127.752 39.3104 127.441 40.2002 127.441 41.5234C127.441 42.5627 127.632 43.3854 127.967 44.0303C128.375 44.7308 128.888 45.3149 129.508 45.7908C130.183 46.2768 130.935 46.6341 131.769 46.8622C132.681 47.0996 133.612 47.2184 134.566 47.2184C136.17 47.2184 137.631 47.0128 138.956 46.6114L138.964 46.609C140.323 46.2093 141.453 45.6188 142.375 44.8511C143.338 44.0414 144.067 43.063 144.568 41.9058L144.571 41.8988L144.575 41.8918C145.112 40.7016 145.396 39.2868 145.396 37.6234V36.2834H137.361C136.26 36.2834 135.069 36.3258 133.789 36.4111C132.628 36.4912 131.561 36.7303 130.582 37.1219L130.566 37.1284Z" fill="#373737"/>
<path d="M18.8889 56.9999V62.9999H94.9243V56.9999H18.8889Z" fill="#373737"/>
<path d="M27 49.9999C27 51.6568 28.3431 52.9999 30 52.9999C31.6569 52.9999 33 51.6568 33 49.9999L33 2.99992C33 1.42723 31.7898 0.137183 30.2499 0.0101834C30.0761 -0.00415508 29.8964 -0.00333617 29.723 0.0125408C28.88 0.0588367 28.1572 0.257612 27.6499 0.987033L22.0127 10.1351C20.7924 11.8898 22.3178 14.0833 24.7585 14.0833H27L27 49.9999Z" fill="#373737"/>
</svg>
