<svg width="12" height="12" viewBox="0 0 12 12" fill="none" xmlns="http://www.w3.org/2000/svg">
<path d="M3.6 5.4C3.2688 5.4 3 5.6688 3 6C3 6.3312 3.2688 6.6 3.6 6.6H5.4V8.4C5.4 8.7312 5.6688 9 6 9C6.3312 9 6.6 8.7312 6.6 8.4V6.6H8.4C8.7312 6.6 9 6.3312 9 6C9 5.6688 8.7312 5.4 8.4 5.4H6.6V3.6C6.6 3.2688 6.3312 3 6 3C5.6688 3 5.4 3.2688 5.4 3.6V5.4H3.6Z" fill="white"/>
<path fill-rule="evenodd" clip-rule="evenodd" d="M0 3.24C0 1.4506 1.4506 0 3.24 0H8.76C10.5494 0 12 1.4506 12 3.24V8.76C12 10.5494 10.5494 12 8.76 12H3.24C1.4506 12 0 10.5494 0 8.76V3.24ZM3.24 1.2C2.11334 1.2 1.2 2.11334 1.2 3.24V8.76C1.2 9.88666 2.11334 10.8 3.24 10.8H8.76C9.88666 10.8 10.8 9.88666 10.8 8.76V3.24C10.8 2.11334 9.88666 1.2 8.76 1.2H3.24Z" fill="white"/>
</svg>
