<svg width="12" height="12" viewBox="0 0 12 12" fill="none" xmlns="http://www.w3.org/2000/svg">
<path d="M1 5.5H6.5C6.76522 5.5 7.01957 5.39464 7.20711 5.20711C7.39464 5.01957 7.5 4.76522 7.5 4.5V1C7.5 0.734784 7.39464 0.48043 7.20711 0.292893C7.01957 0.105357 6.76522 0 6.5 0H1C0.734783 0 0.48043 0.105357 0.292893 0.292893C0.105357 0.48043 0 0.734784 0 1V4.5C0 4.76522 0.105357 5.01957 0.292893 5.20711C0.48043 5.39464 0.734783 5.5 1 5.5ZM1 1H6.5V4.5H1V1Z" fill="white"/>
<path d="M11 0H9.49999C9.23478 0 8.98042 0.105357 8.79288 0.292893C8.60535 0.48043 8.49999 0.734784 8.49999 1V4.5C8.49999 4.76522 8.60535 5.01957 8.79288 5.20711C8.98042 5.39464 9.23478 5.5 9.49999 5.5H11C11.2652 5.5 11.5196 5.39464 11.7071 5.20711C11.8946 5.01957 12 4.76522 12 4.5V1C12 0.734784 11.8946 0.48043 11.7071 0.292893C11.5196 0.105357 11.2652 0 11 0ZM11 4.5H9.49999V1H11V4.5Z" fill="white"/>
<path d="M2.5 6.50001H1C0.734784 6.50001 0.48043 6.60536 0.292893 6.7929C0.105357 6.98044 0 7.23479 0 7.50001V11C0 11.2652 0.105357 11.5196 0.292893 11.7071C0.48043 11.8947 0.734784 12 1 12H2.5C2.76522 12 3.01957 11.8947 3.20711 11.7071C3.39464 11.5196 3.5 11.2652 3.5 11V7.50001C3.5 7.23479 3.39464 6.98044 3.20711 6.7929C3.01957 6.60536 2.76522 6.50001 2.5 6.50001ZM2.5 11H1V7.50001H2.5V11Z" fill="white"/>
<path d="M11 6.50001H5.5C5.23478 6.50001 4.98043 6.60536 4.79289 6.7929C4.60536 6.98044 4.5 7.23479 4.5 7.50001V11C4.5 11.2652 4.60536 11.5196 4.79289 11.7071C4.98043 11.8947 5.23478 12 5.5 12H11C11.2652 12 11.5196 11.8947 11.7071 11.7071C11.8946 11.5196 12 11.2652 12 11V7.50001C12 7.23479 11.8946 6.98044 11.7071 6.7929C11.5196 6.60536 11.2652 6.50001 11 6.50001ZM11 11H5.5V7.50001H11V11Z" fill="white"/>
</svg>
