<svg width="12" height="12" viewBox="0 0 12 12" fill="none" xmlns="http://www.w3.org/2000/svg">
<path fill-rule="evenodd" clip-rule="evenodd" d="M3.5 7C3.5 7.27614 3.72386 7.5 4 7.5H8C8.27614 7.5 8.5 7.27614 8.5 7C8.5 6.72386 8.27614 6.5 8 6.5H4C3.72386 6.5 3.5 6.72386 3.5 7Z" fill="white"/>
<path fill-rule="evenodd" clip-rule="evenodd" d="M3.5 9C3.5 9.27614 3.72386 9.5 4 9.5H6.5C6.77614 9.5 7 9.27614 7 9C7 8.72386 6.77614 8.5 6.5 8.5H4C3.72386 8.5 3.5 8.72386 3.5 9Z" fill="white"/>
<path fill-rule="evenodd" clip-rule="evenodd" d="M0.9998 9.5C0.9998 10.8806 2.11916 12 3.4998 12H8.4998C9.88044 12 10.9998 10.8806 10.9998 9.5V5.2425C10.9998 4.3147 10.6318 3.42446 9.9749 2.768L8.2324 1.025C7.57575 0.368925 6.68597 4.47035e-07 5.7573 4.47035e-07H3.4998C2.11916 4.47035e-07 0.9998 1.11936 0.9998 2.5V9.5ZM3.4998 11C2.67144 11 1.9998 10.3284 1.9998 9.5V2.5C1.9998 1.67164 2.67144 1 3.4998 1H5.7573C5.83871 1 5.91969 1.00397 6 1.01179C6.35371 1.04625 6.69432 1.15556 7 1.33062C7.19043 1.43969 7.36731 1.57426 7.52535 1.73216L9.2677 3.475C9.42563 3.6328 9.56023 3.80959 9.6693 4C9.84433 4.3056 9.9536 4.64631 9.98803 5C9.99584 5.08025 9.9998 5.16117 9.9998 5.2425V9.5C9.9998 10.3284 9.32816 11 8.4998 11H3.4998Z" fill="white"/>
<path fill-rule="evenodd" clip-rule="evenodd" d="M7.5 4C7.22414 4 7 3.77586 7 3.5V1.33062V1C7 0.723858 6.77614 0.5 6.5 0.5C6.22386 0.5 6 0.723858 6 1V1.01179V3.5C6 4.32814 6.67186 5 7.5 5H9.98803H10C10.2761 5 10.5 4.77614 10.5 4.5C10.5 4.22386 10.2761 4 10 4H9.6693H7.5Z" fill="white"/>
<path fill-rule="evenodd" clip-rule="evenodd" d="M3.4998 4.47035e-07H5.7573C6.68597 4.47035e-07 7.57575 0.368925 8.2324 1.025L9.9749 2.768C10.6318 3.42446 10.9998 4.3147 10.9998 5.2425V9.5C10.9998 10.8806 9.88044 12 8.4998 12H3.4998C2.11916 12 0.9998 10.8806 0.9998 9.5V2.5C0.9998 1.11936 2.11916 4.47035e-07 3.4998 4.47035e-07ZM1.9998 9.5C1.9998 10.3284 2.67144 11 3.4998 11H8.4998C9.32816 11 9.9998 10.3284 9.9998 9.5V5.2425C9.9998 5.16117 9.99584 5.08025 9.98803 5H7.5C6.67186 5 6 4.32814 6 3.5V1.01179C5.91969 1.00397 5.83871 1 5.7573 1H3.4998C2.67144 1 1.9998 1.67164 1.9998 2.5V9.5ZM3.5 7C3.5 7.27614 3.72386 7.5 4 7.5H8C8.27614 7.5 8.5 7.27614 8.5 7C8.5 6.72386 8.27614 6.5 8 6.5H4C3.72386 6.5 3.5 6.72386 3.5 7ZM3.5 9C3.5 9.27614 3.72386 9.5 4 9.5H6.5C6.77614 9.5 7 9.27614 7 9C7 8.72386 6.77614 8.5 6.5 8.5H4C3.72386 8.5 3.5 8.72386 3.5 9ZM7.52535 1.73216L9.2677 3.475C9.42563 3.6328 9.56023 3.80959 9.6693 4H7.5C7.22414 4 7 3.77586 7 3.5V1.33062C7.19043 1.43969 7.36731 1.57426 7.52535 1.73216Z" fill="white"/>
</svg>
