<svg width="156" height="72" viewBox="0 0 156 72" fill="none" xmlns="http://www.w3.org/2000/svg">
<path fill-rule="evenodd" clip-rule="evenodd" d="M30 57C28.3431 57 27 55.6569 27 54L27 3C27 1.34315 28.3431 0 30 0C31.6569 0 33 1.34315 33 3V54C33 55.6569 31.6569 57 30 57Z" fill="#373737"/>
<path fill-rule="evenodd" clip-rule="evenodd" d="M153 60.7537L22 60.7537L22 66.7537L153 66.7537C154.657 66.7537 156 65.4105 156 63.7537C156 62.0968 154.657 60.7537 153 60.7537Z" fill="#373737"/>
<path d="M100.3 25.06H108.76C109.688 25.06 110.44 25.8122 110.44 26.74Lnan nanL110.44 26.74C110.44 27.6678 109.688 28.42 108.76 28.42H100.3V46.24C100.3 47.16 100.34 48.06 100.42 48.94C100.54 49.82 100.78 50.62 101.14 51.34C101.5 52.02 102.02 52.58 102.7 53.02C103.42 53.46 104.38 53.68 105.58 53.68C106.34 53.68 107.1 53.58 107.86 53.38C107.946 53.3543 108.03 53.3274 108.112 53.2993C109.042 52.9818 110.238 53.1874 110.713 54.0472Lnan nanL110.713 54.0472C111.074 54.6999 110.915 55.5331 110.268 55.9039C109.668 56.2474 109.046 56.5061 108.4 56.68C107.4 56.92 106.28 57.04 105.04 57.04C103.4 57.04 102.02 56.8 100.9 56.32C99.78 55.84 98.88 55.18 98.2 54.34C97.52 53.46 97.04 52.4 96.76 51.16C96.48 49.88 96.34 48.46 96.34 46.9V28.42H92.68C91.7522 28.42 91 27.6678 91 26.74Lnan nanL91 26.74C91 25.8122 91.7522 25.06 92.68 25.06H96.34V17.98C96.34 16.8865 97.2265 16 98.32 16Lnan nanL98.32 16C99.4135 16 100.3 16.8865 100.3 17.98V25.06Z" fill="#373737"/>
<path d="M138.315 52.12C136.795 53.96 135.055 55.24 133.095 55.96C131.175 56.68 129.055 57.04 126.735 57.04C125.335 57.04 123.975 56.88 122.655 56.56C121.375 56.2 120.215 55.64 119.175 54.88C118.135 54.12 117.295 53.16 116.655 52C116.055 50.8 115.755 49.46 115.755 47.98C115.755 46.18 116.095 44.68 116.775 43.48C117.455 42.28 118.335 41.32 119.415 40.6C120.535 39.88 121.815 39.38 123.255 39.1C124.695 38.78 126.195 38.62 127.755 38.62H138.135C138.135 37.18 137.975 35.82 137.655 34.54C137.375 33.26 136.895 32.14 136.215 31.18C135.535 30.22 134.635 29.46 133.515 28.9C132.435 28.34 131.095 28.06 129.495 28.06C128.735 28.06 127.955 28.12 127.155 28.24C126.395 28.36 125.655 28.56 124.935 28.84C124.255 29.12 123.615 29.52 123.015 30.04C122.789 30.2337 122.579 30.4468 122.386 30.6796C121.843 31.3326 121.098 31.84 120.249 31.84Lnan nanL120.249 31.84C118.771 31.84 117.681 30.3899 118.559 29.2009C118.731 28.9683 118.916 28.748 119.115 28.54C119.955 27.62 120.935 26.88 122.055 26.32C123.215 25.72 124.435 25.3 125.715 25.06C127.035 24.82 128.335 24.7 129.615 24.7C131.935 24.7 133.895 25.08 135.495 25.84C137.095 26.6 138.375 27.66 139.335 29.02C140.335 30.34 141.035 31.9 141.435 33.7C141.875 35.5 142.095 37.44 142.095 39.52V54.9644C142.095 55.9119 141.327 56.68 140.379 56.68Lnan nanL140.379 56.68C139.51 56.68 138.778 56.0296 138.675 55.1662L138.315 52.12ZM129.795 41.8C128.755 41.8 127.635 41.84 126.435 41.92C125.275 42 124.195 42.24 123.195 42.64C122.195 43 121.355 43.58 120.675 44.38C120.035 45.14 119.715 46.2 119.715 47.56C119.715 48.64 119.915 49.56 120.315 50.32C120.755 51.08 121.315 51.72 121.995 52.24C122.715 52.76 123.515 53.14 124.395 53.38C125.315 53.62 126.255 53.74 127.215 53.74C128.775 53.74 130.215 53.54 131.535 53.14C132.895 52.74 134.055 52.14 135.015 51.34C136.015 50.5 136.775 49.48 137.295 48.28C137.855 47.04 138.135 45.6 138.135 43.96V41.8H129.795Z" fill="#373737"/>
<path fill-rule="evenodd" clip-rule="evenodd" d="M108.647 57.6492L108.633 57.6524C107.543 57.914 106.343 58.04 105.04 58.04C103.309 58.04 101.786 57.7875 100.506 57.2391C99.2559 56.7034 98.2175 55.9509 97.4228 54.9692L97.4156 54.9604L97.4087 54.9514C96.6276 53.9406 96.0921 52.7422 95.7846 51.3803L95.7831 51.3737C95.4852 50.0117 95.34 48.5187 95.34 46.9V29.42H92.68C91.1999 29.42 90 28.2201 90 26.74C90 25.2599 91.1999 24.06 92.68 24.06H95.34V17.98C95.34 16.3342 96.6742 15 98.32 15C99.9658 15 101.3 16.3342 101.3 17.98V24.06H108.76C110.24 24.06 111.44 25.2599 111.44 26.74C111.44 28.2201 110.24 29.42 108.76 29.42H101.3V46.24C101.3 47.123 101.338 47.9852 101.414 48.8267C101.521 49.5958 101.729 50.2781 102.029 50.8821C102.303 51.3951 102.697 51.8244 103.232 52.1731C103.742 52.4812 104.498 52.68 105.58 52.68C106.246 52.68 106.915 52.5932 107.589 52.4173C107.657 52.3965 107.724 52.3751 107.789 52.353C108.428 52.1346 109.156 52.0936 109.826 52.2618C110.502 52.4314 111.186 52.8355 111.588 53.5631C112.166 54.6074 111.968 56.0824 110.765 56.7716C110.094 57.1564 109.391 57.4487 108.66 57.6456L108.647 57.6492ZM107.86 53.38C107.1 53.58 106.34 53.68 105.58 53.68C104.38 53.68 103.42 53.46 102.7 53.02C102.02 52.58 101.5 52.02 101.14 51.34C100.78 50.62 100.54 49.82 100.42 48.94C100.34 48.06 100.3 47.16 100.3 46.24V28.42H108.76C109.688 28.42 110.44 27.6678 110.44 26.74C110.44 25.8122 109.688 25.06 108.76 25.06H100.3V17.98C100.3 16.8865 99.4135 16 98.32 16C97.2265 16 96.34 16.8865 96.34 17.98V25.06H92.68C91.7522 25.06 91 25.8122 91 26.74C91 27.6678 91.7522 28.42 92.68 28.42H96.34V46.9C96.34 48.46 96.48 49.88 96.76 51.16C97.04 52.4 97.52 53.46 98.2 54.34C98.88 55.18 99.78 55.84 100.9 56.32C102.02 56.8 103.4 57.04 105.04 57.04C106.28 57.04 107.4 56.92 108.4 56.68C109.046 56.5061 109.668 56.2474 110.268 55.9039C110.915 55.5331 111.074 54.6999 110.713 54.0472C110.238 53.1874 109.042 52.9818 108.112 53.2993C108.03 53.3274 107.946 53.3543 107.86 53.38ZM122.401 57.5276L122.384 57.5227C120.993 57.1314 119.724 56.52 118.585 55.6874C117.424 54.8389 116.487 53.767 115.779 52.4831L115.769 52.4653L115.76 52.4472C115.084 51.0945 114.755 49.599 114.755 47.98C114.755 46.0585 115.117 44.3764 115.905 42.987C116.657 41.6596 117.642 40.5801 118.86 39.768L118.867 39.7633L118.874 39.7588C120.107 38.9658 121.504 38.4232 123.051 38.1209C124.562 37.7862 126.131 37.62 127.755 37.62H137.107C137.05 36.6256 136.909 35.6803 136.685 34.7825L136.681 34.7682L136.678 34.7537C136.423 33.5898 135.993 32.5968 135.399 31.758C134.82 30.9408 134.05 30.2858 133.067 29.7944L133.061 29.7911L133.054 29.7878C132.154 29.321 130.983 29.06 129.495 29.06C128.789 29.06 128.06 29.1156 127.307 29.2284C126.622 29.3367 125.956 29.5166 125.306 29.7684C124.737 30.0039 124.192 30.3432 123.67 30.7957L123.665 30.7993C123.483 30.9556 123.313 31.1285 123.155 31.3187C122.511 32.094 121.511 32.84 120.249 32.84C119.189 32.84 118.233 32.3212 117.694 31.5285C117.132 30.7013 117.039 29.5758 117.755 28.6069C117.949 28.3437 118.159 28.0938 118.384 27.8577C119.304 26.852 120.378 26.0413 121.601 25.4287C122.846 24.7857 124.156 24.3347 125.53 24.0771L125.536 24.0761C126.912 23.8259 128.272 23.7 129.615 23.7C132.039 23.7 134.155 24.0965 135.924 24.9367C137.663 25.763 139.078 26.9268 140.142 28.4295C141.231 29.871 141.982 31.5587 142.409 33.4729C142.868 35.3565 143.095 37.3735 143.095 39.52V54.9644C143.095 56.4642 141.879 57.68 140.379 57.68C139.003 57.68 137.844 56.6505 137.682 55.2838L137.572 54.3535C136.327 55.4899 134.951 56.3431 133.442 56.8976C131.397 57.664 129.158 58.04 126.735 58.04C125.258 58.04 123.819 57.8711 122.419 57.5319L122.401 57.5276ZM133.095 55.96C134.682 55.3768 136.126 54.4261 137.425 53.1079C137.729 52.7988 138.026 52.4695 138.315 52.12L138.675 55.1662C138.778 56.0296 139.51 56.68 140.379 56.68C141.327 56.68 142.095 55.9119 142.095 54.9644V39.52C142.095 37.44 141.875 35.5 141.435 33.7C141.035 31.9 140.335 30.34 139.335 29.02C138.375 27.66 137.095 26.6 135.495 25.84C133.895 25.08 131.935 24.7 129.615 24.7C128.335 24.7 127.035 24.82 125.715 25.06C124.435 25.3 123.215 25.72 122.055 26.32C120.935 26.88 119.955 27.62 119.115 28.54C118.916 28.748 118.731 28.9683 118.559 29.2009C117.681 30.3899 118.771 31.84 120.249 31.84C121.098 31.84 121.843 31.3326 122.386 30.6796C122.579 30.4468 122.789 30.2337 123.015 30.04C123.615 29.52 124.255 29.12 124.935 28.84C125.655 28.56 126.395 28.36 127.155 28.24C127.955 28.12 128.735 28.06 129.495 28.06C131.095 28.06 132.435 28.34 133.515 28.9C134.635 29.46 135.535 30.22 136.215 31.18C136.895 32.14 137.375 33.26 137.655 34.54C137.9 35.5198 138.051 36.5465 138.108 37.62C138.126 37.9489 138.135 38.2823 138.135 38.62H127.755C126.195 38.62 124.695 38.78 123.255 39.1C121.815 39.38 120.535 39.88 119.415 40.6C118.335 41.32 117.455 42.28 116.775 43.48C116.095 44.68 115.755 46.18 115.755 47.98C115.755 49.46 116.055 50.8 116.655 52C117.295 53.16 118.135 54.12 119.175 54.88C120.215 55.64 121.375 56.2 122.655 56.56C123.975 56.88 125.335 57.04 126.735 57.04C129.055 57.04 131.175 56.68 133.095 55.96ZM123.55 43.575L123.533 43.5809C122.696 43.8822 122.003 44.3614 121.438 45.0257C120.999 45.5487 120.715 46.3502 120.715 47.56C120.715 48.5091 120.889 49.2552 121.191 49.8368C121.562 50.474 122.029 51.0048 122.591 51.4373C123.207 51.88 123.892 52.2057 124.653 52.4138C125.488 52.6311 126.341 52.74 127.215 52.74C128.689 52.74 130.03 52.551 131.245 52.183L131.253 52.1806C132.498 51.8142 133.531 51.2739 134.373 50.5731C135.253 49.8332 135.919 48.9397 136.377 47.8824L136.38 47.8754L136.383 47.8684C136.874 46.7815 137.135 45.4867 137.135 43.96V42.8H129.795C128.78 42.8 127.683 42.839 126.502 42.9177C125.438 42.9912 124.462 43.2102 123.566 43.5685L123.55 43.575ZM126.435 41.92C127.635 41.84 128.755 41.8 129.795 41.8H138.135V43.96C138.135 45.6 137.855 47.04 137.295 48.28C136.775 49.48 136.015 50.5 135.015 51.34C134.055 52.14 132.895 52.74 131.535 53.14C130.215 53.54 128.775 53.74 127.215 53.74C126.255 53.74 125.315 53.62 124.395 53.38C123.515 53.14 122.715 52.76 121.995 52.24C121.315 51.72 120.755 51.08 120.315 50.32C119.915 49.56 119.715 48.64 119.715 47.56C119.715 46.2 120.035 45.14 120.675 44.38C121.355 43.58 122.195 43 123.195 42.64C124.195 42.24 125.275 42 126.435 41.92Z" fill="#373737"/>
<path fill-rule="evenodd" clip-rule="evenodd" d="M22.5 32.7537C18.0011 32.7537 13.7555 34.3154 10.6828 36.9942C7.62319 39.6615 6 43.1838 6 46.7537C6 50.3235 7.62319 53.8458 10.6828 56.5132C13.7555 59.1919 18.0011 60.7537 22.5 60.7537V66.7537C16.6554 66.7537 10.9812 64.7333 6.74001 61.0358C2.48573 57.3269 0 52.2012 0 46.7537C0 41.3061 2.48573 36.1804 6.74001 32.4715C10.9812 28.7741 16.6554 26.7537 22.5 26.7537H30V32.7537H22.5Z" fill="#373737"/>
<path fill-rule="evenodd" clip-rule="evenodd" d="M48.031 21.8082C52.1154 14.6327 57.1434 9.80005 63.1194 9.80005H63.8806C69.8566 9.80005 74.8846 14.6327 78.969 21.8082C83.0963 29.0591 86.8302 39.6554 89.9809 53.4524C90.3409 55.0286 89.3602 56.6084 87.7762 56.9749C86.175 57.3454 84.601 56.3336 84.2412 54.7584C81.1506 41.2286 77.5769 31.27 73.8586 24.7378C69.9608 17.89 66.4478 15.7062 63.8806 15.7062H63.5093L63.4909 15.7062H63.1194C60.5523 15.7062 57.0393 17.89 53.1414 24.7378C49.4232 31.27 45.8494 41.2286 42.7588 54.7584C42.399 56.3336 40.8251 57.3454 39.2238 56.9749C37.6399 56.6084 36.6591 55.0286 37.0191 53.4524C40.1698 39.6554 43.9037 29.0591 48.031 21.8082Z" fill="#0083F5"/>
<path d="M30 0V13H24.931C22.6781 13 21.27 10.9753 22.3965 9.35552L27.6 0.911083C28.1632 0.101201 29.0144 -4.65616e-07 30 0Z" fill="#373737"/>
<path d="M156 64H143V69.069C143 71.3219 145.025 72.73 146.644 71.6035L155.089 66.4C155.899 65.8368 156 64.9856 156 64Z" fill="#373737"/>
</svg>
