<svg width="50" height="24" viewBox="0 0 50 24" fill="none" xmlns="http://www.w3.org/2000/svg">
<path fill-rule="evenodd" clip-rule="evenodd" d="M9.6151 19.0002C9.08406 19.0002 8.65357 18.5525 8.65357 18.0002V1.00013C8.65357 0.44784 9.08406 0.00012207 9.6151 0.00012207C10.1461 0.00012207 10.5766 0.44784 10.5766 1.00013V18.0002C10.5766 18.5525 10.1461 19.0002 9.6151 19.0002Z" fill="white"/>
<path fill-rule="evenodd" clip-rule="evenodd" d="M49.0386 20.2514L7.05158 20.2514V22.2514L49.0386 22.2514C49.5696 22.2514 50.0001 21.8037 50.0001 21.2514C50.0001 20.6991 49.5696 20.2514 49.0386 20.2514Z" fill="white"/>
<path d="M32.1471 8.35343H34.8586C35.156 8.35343 35.3971 8.60415 35.3971 8.91343C35.3971 9.22271 35.156 9.47343 34.8586 9.47343H32.1471V15.4135C32.1471 15.7201 32.1599 16.0201 32.1856 16.3135C32.224 16.6068 32.301 16.8735 32.4164 17.1135C32.5317 17.3401 32.6984 17.5268 32.9163 17.6735C33.1471 17.8201 33.4548 17.8935 33.8394 17.8935C34.083 17.8935 34.3266 17.8601 34.5702 17.7935C34.5977 17.7849 34.6246 17.7759 34.6509 17.7666C34.949 17.6607 35.3323 17.7292 35.4847 18.0159C35.6004 18.2334 35.5494 18.5111 35.342 18.6348C35.1498 18.7493 34.9503 18.8355 34.7433 18.8935C34.4228 18.9735 34.0638 19.0135 33.6663 19.0135C33.1407 19.0135 32.6984 18.9335 32.3394 18.7735C31.9805 18.6135 31.692 18.3935 31.474 18.1135C31.2561 17.8201 31.1023 17.4668 31.0125 17.0535C30.9228 16.6268 30.8779 16.1535 30.8779 15.6335V9.47343H29.7048C29.4074 9.47343 29.1664 9.22271 29.1664 8.91343C29.1664 8.60415 29.4074 8.35343 29.7048 8.35343H30.8779V5.99342C30.8779 5.62891 31.162 5.33342 31.5125 5.33342C31.863 5.33342 32.1471 5.62891 32.1471 5.99342V8.35343Z" fill="white"/>
<path d="M44.3313 17.3735C43.8441 17.9868 43.2864 18.4135 42.6582 18.6535C42.0428 18.8935 41.3633 19.0135 40.6197 19.0135C40.171 19.0135 39.7351 18.9601 39.312 18.8535C38.9018 18.7335 38.53 18.5468 38.1967 18.2935C37.8633 18.0401 37.5941 17.7201 37.389 17.3335C37.1967 16.9335 37.1005 16.4868 37.1005 15.9935C37.1005 15.3935 37.2095 14.8934 37.4274 14.4934C37.6454 14.0934 37.9274 13.7734 38.2736 13.5334C38.6326 13.2934 39.0428 13.1268 39.5044 13.0334C39.9659 12.9268 40.4467 12.8734 40.9467 12.8734H44.2736C44.2736 12.3934 44.2223 11.9401 44.1197 11.5134C44.03 11.0868 43.8761 10.7134 43.6582 10.3934C43.4402 10.0734 43.1518 9.8201 42.7928 9.63343C42.4467 9.44676 42.0172 9.35343 41.5043 9.35343C41.2608 9.35343 41.0108 9.37343 40.7544 9.41343C40.5108 9.45343 40.2736 9.5201 40.0428 9.61343C39.8249 9.70677 39.6197 9.8401 39.4274 10.0134C39.355 10.078 39.2878 10.149 39.2258 10.2266C39.0519 10.4443 38.8132 10.6134 38.5411 10.6134C38.0674 10.6134 37.718 10.1301 37.9994 9.73372C38.0545 9.65619 38.1138 9.58276 38.1774 9.51343C38.4467 9.20676 38.7608 8.9601 39.1197 8.77343C39.4915 8.57343 39.8826 8.43343 40.2928 8.35343C40.7159 8.27343 41.1326 8.23343 41.5428 8.23343C42.2864 8.23343 42.9146 8.36009 43.4274 8.61343C43.9402 8.86676 44.3505 9.2201 44.6582 9.67343C44.9787 10.1134 45.203 10.6334 45.3313 11.2334C45.4723 11.8334 45.5428 12.4801 45.5428 13.1734V18.3216C45.5428 18.6374 45.2966 18.8935 44.9929 18.8935C44.7143 18.8935 44.4796 18.6767 44.4469 18.3889L44.3313 17.3735ZM41.6005 13.9334C41.2672 13.9334 40.9082 13.9468 40.5236 13.9734C40.1518 14.0001 39.8056 14.0801 39.4851 14.2134C39.1646 14.3334 38.8954 14.5268 38.6774 14.7934C38.4723 15.0468 38.3697 15.4001 38.3697 15.8535C38.3697 16.2135 38.4338 16.5201 38.5621 16.7735C38.7031 17.0268 38.8826 17.2401 39.1005 17.4135C39.3313 17.5868 39.5877 17.7135 39.8697 17.7935C40.1646 17.8735 40.4659 17.9135 40.7736 17.9135C41.2736 17.9135 41.7351 17.8468 42.1582 17.7135C42.5941 17.5801 42.9659 17.3801 43.2736 17.1135C43.5941 16.8335 43.8377 16.4935 44.0043 16.0935C44.1838 15.6801 44.2736 15.2001 44.2736 14.6534V13.9334H41.6005Z" fill="white"/>
<path fill-rule="evenodd" clip-rule="evenodd" d="M34.8226 19.2166L34.8183 19.2177C34.4689 19.3049 34.0843 19.3469 33.6666 19.3469C33.1117 19.3469 32.6235 19.2627 32.2134 19.0799C31.8127 18.9013 31.4799 18.6505 31.2252 18.3233L31.2229 18.3203L31.2207 18.3174C30.9703 17.9804 30.7987 17.5809 30.7001 17.127L30.6997 17.1248C30.6042 16.6708 30.5576 16.1731 30.5576 15.6335V9.80685H29.7051C29.2307 9.80685 28.8461 9.40689 28.8461 8.91351C28.8461 8.42014 29.2307 8.02017 29.7051 8.02017H30.5576V5.9935C30.5576 5.4449 30.9853 5.00016 31.5128 5.00016C32.0403 5.00016 32.4679 5.4449 32.4679 5.9935V8.02017H34.8589C35.3333 8.02017 35.7179 8.42014 35.7179 8.91351C35.7179 9.40689 35.3333 9.80685 34.8589 9.80685H32.4679V15.4135C32.4679 15.7079 32.4801 15.9953 32.5044 16.2758C32.5387 16.5321 32.6053 16.7596 32.7016 16.9609C32.7893 17.1319 32.9156 17.275 33.0871 17.3913C33.2506 17.494 33.4928 17.5602 33.8397 17.5602C34.0531 17.5602 34.2675 17.5313 34.4836 17.4726C34.5055 17.4657 34.5268 17.4586 34.5476 17.4512C34.7526 17.3784 34.986 17.3647 35.2007 17.4208C35.4172 17.4773 35.6364 17.612 35.7654 17.8546C35.9506 18.2027 35.8871 18.6943 35.5016 18.9241C35.2863 19.0523 35.0613 19.1498 34.8268 19.2154L34.8226 19.2166ZM34.5702 17.7935C34.3266 17.8601 34.083 17.8935 33.8394 17.8935C33.4548 17.8935 33.1471 17.8201 32.9163 17.6735C32.6984 17.5268 32.5317 17.3401 32.4164 17.1135C32.301 16.8735 32.224 16.6068 32.1856 16.3135C32.1599 16.0201 32.1471 15.7201 32.1471 15.4135V9.47343H34.8586C35.156 9.47343 35.3971 9.22271 35.3971 8.91343C35.3971 8.60415 35.156 8.35343 34.8586 8.35343H32.1471V5.99342C32.1471 5.62891 31.863 5.33342 31.5125 5.33342C31.162 5.33342 30.8779 5.62891 30.8779 5.99342V8.35343H29.7048C29.4074 8.35343 29.1664 8.60415 29.1664 8.91343C29.1664 9.22271 29.4074 9.47343 29.7048 9.47343H30.8779V15.6335C30.8779 16.1535 30.9228 16.6268 31.0125 17.0535C31.1023 17.4668 31.2561 17.8201 31.474 18.1135C31.692 18.3935 31.9805 18.6135 32.3394 18.7735C32.6984 18.9335 33.1407 19.0135 33.6663 19.0135C34.0638 19.0135 34.4228 18.9735 34.7433 18.8935C34.9503 18.8355 35.1498 18.7493 35.342 18.6348C35.5494 18.5111 35.6004 18.2334 35.4847 18.0159C35.3323 17.7292 34.949 17.6607 34.6509 17.7666C34.6246 17.7759 34.5977 17.7849 34.5702 17.7935ZM39.2311 19.1761L39.2255 19.1744C38.7797 19.044 38.373 18.8402 38.0078 18.5627C37.6357 18.2798 37.3356 17.9225 37.1086 17.4946L37.1055 17.4887L37.1026 17.4826C36.8858 17.0317 36.7803 16.5332 36.7803 15.9935C36.7803 15.353 36.8965 14.7923 37.1488 14.3292C37.3899 13.8867 37.7056 13.5269 38.0961 13.2562L38.0983 13.2546L38.1005 13.2531C38.4959 12.9888 38.9435 12.8079 39.4392 12.7072C39.9236 12.5956 40.4264 12.5402 40.9469 12.5402H43.9444C43.9263 12.2087 43.881 11.8936 43.809 11.5944L43.8079 11.5896L43.8069 11.5848C43.7253 11.1968 43.5873 10.8658 43.3969 10.5862C43.2114 10.3138 42.9647 10.0954 42.6497 9.93166L42.6476 9.93056L42.6455 9.92943C42.357 9.77386 41.9817 9.68685 41.5046 9.68685C41.2783 9.68685 41.0446 9.7054 40.8034 9.74297C40.584 9.77908 40.3704 9.83903 40.1622 9.92298C39.9798 10.0015 39.8049 10.1146 39.6376 10.2654L39.6363 10.2666C39.5778 10.3187 39.5233 10.3764 39.4726 10.4397C39.2661 10.6982 38.9456 10.9469 38.5414 10.9469C38.2014 10.9469 37.895 10.7739 37.7223 10.5097C37.5421 10.234 37.5125 9.85879 37.7418 9.5358C37.8041 9.44807 37.8713 9.3648 37.9434 9.28607C38.2382 8.95084 38.5826 8.6806 38.9747 8.4764C39.3736 8.26206 39.7937 8.11175 40.234 8.02588L40.2357 8.02555C40.6768 7.94215 41.1127 7.90017 41.5431 7.90017C42.3201 7.90017 42.9982 8.03234 43.5652 8.31242C44.1228 8.58786 44.576 8.97577 44.9172 9.47668C45.2661 9.95719 45.5069 10.5197 45.6437 11.1578C45.7909 11.7857 45.8636 12.458 45.8636 13.1735V18.3217C45.8636 18.8216 45.4739 19.2269 44.9932 19.2269C44.5521 19.2269 44.1807 18.8837 44.1288 18.4281L44.0935 18.1181C43.6944 18.4968 43.2533 18.7812 42.7699 18.9661C42.1144 19.2215 41.3966 19.3469 40.62 19.3469C40.1466 19.3469 39.6853 19.2906 39.2368 19.1775L39.2311 19.1761ZM42.6582 18.6535C43.1671 18.4591 43.6299 18.1422 44.0463 17.7029C44.1439 17.5998 44.2387 17.49 44.3313 17.3735L44.4469 18.3889C44.4796 18.6767 44.7143 18.8935 44.9929 18.8935C45.2966 18.8935 45.5428 18.6374 45.5428 18.3216V13.1734C45.5428 12.4801 45.4723 11.8334 45.3313 11.2334C45.203 10.6334 44.9787 10.1134 44.6582 9.67343C44.3505 9.2201 43.9402 8.86676 43.4274 8.61343C42.9146 8.36009 42.2864 8.23343 41.5428 8.23343C41.1326 8.23343 40.7159 8.27343 40.2928 8.35343C39.8826 8.43343 39.4915 8.57343 39.1197 8.77343C38.7608 8.9601 38.4467 9.20676 38.1774 9.51343C38.1138 9.58276 38.0545 9.65619 37.9994 9.73372C37.718 10.1301 38.0674 10.6134 38.5411 10.6134C38.8132 10.6134 39.0519 10.4443 39.2258 10.2266C39.2878 10.149 39.355 10.078 39.4274 10.0134C39.6197 9.8401 39.8249 9.70677 40.0428 9.61343C40.2736 9.5201 40.5108 9.45343 40.7544 9.41343C41.0108 9.37343 41.2608 9.35343 41.5043 9.35343C42.0172 9.35343 42.4467 9.44676 42.7928 9.63343C43.1518 9.8201 43.4402 10.0734 43.6582 10.3934C43.8761 10.7134 44.03 11.0868 44.1197 11.5134C44.1982 11.84 44.2469 12.1823 44.2654 12.5402C44.271 12.6498 44.2736 12.7609 44.2736 12.8734H40.9467C40.4467 12.8734 39.9659 12.9268 39.5044 13.0334C39.0428 13.1268 38.6326 13.2934 38.2736 13.5334C37.9274 13.7734 37.6454 14.0934 37.4274 14.4934C37.2095 14.8934 37.1005 15.3935 37.1005 15.9935C37.1005 16.4868 37.1967 16.9335 37.389 17.3335C37.5941 17.7201 37.8633 18.0401 38.1967 18.2935C38.53 18.5468 38.9018 18.7335 39.312 18.8535C39.7351 18.9601 40.171 19.0135 40.6197 19.0135C41.3633 19.0135 42.0428 18.8935 42.6582 18.6535ZM39.5992 14.5252L39.5939 14.5272C39.3257 14.6276 39.1036 14.7873 38.9224 15.0088C38.7815 15.1831 38.6905 15.4503 38.6905 15.8535C38.6905 16.1699 38.7463 16.4186 38.843 16.6125C38.9622 16.8249 39.1116 17.0018 39.292 17.146C39.4893 17.2935 39.7088 17.4021 39.9526 17.4715C40.2203 17.5439 40.4938 17.5802 40.7738 17.5802C41.2464 17.5802 41.6762 17.5172 42.0655 17.3945L42.068 17.3937C42.4673 17.2716 42.7984 17.0915 43.0681 16.8579C43.3503 16.6113 43.5637 16.3134 43.7105 15.961L43.7115 15.9587L43.7125 15.9563C43.8698 15.594 43.9533 15.1624 43.9533 14.6535V14.2669H41.6008C41.2757 14.2669 40.924 14.2799 40.5456 14.3061C40.2045 14.3306 39.8915 14.4036 39.6044 14.523L39.5992 14.5252ZM40.5236 13.9734C40.9082 13.9468 41.2672 13.9334 41.6005 13.9334H44.2736V14.6534C44.2736 15.2001 44.1838 15.6801 44.0043 16.0935C43.8377 16.4935 43.5941 16.8335 43.2736 17.1135C42.9659 17.3801 42.5941 17.5801 42.1582 17.7135C41.7351 17.8468 41.2736 17.9135 40.7736 17.9135C40.4659 17.9135 40.1646 17.8735 39.8697 17.7935C39.5877 17.7135 39.3313 17.5868 39.1005 17.4135C38.8826 17.2401 38.7031 17.0268 38.5621 16.7735C38.4338 16.5201 38.3697 16.2135 38.3697 15.8535C38.3697 15.4001 38.4723 15.0468 38.6774 14.7934C38.8954 14.5268 39.1646 14.3334 39.4851 14.2134C39.8056 14.0801 40.1518 14.0001 40.5236 13.9734Z" fill="white"/>
<path fill-rule="evenodd" clip-rule="evenodd" d="M7.2115 10.9179C5.76957 10.9179 4.4088 11.4385 3.42397 12.3314C2.44332 13.2206 1.92307 14.3947 1.92307 15.5846C1.92307 16.7746 2.44332 17.9487 3.42397 18.8378C4.4088 19.7307 5.76957 20.2513 7.2115 20.2513V22.2513C5.33825 22.2513 3.5196 21.5778 2.16025 20.3454C0.796704 19.1091 0 17.4005 0 15.5846C0 13.7688 0.796705 12.0602 2.16025 10.8239C3.51961 9.5914 5.33825 8.91793 7.2115 8.91793H9.61534V10.9179H7.2115Z" fill="white"/>
<path fill-rule="evenodd" clip-rule="evenodd" d="M15.3946 7.2695C16.7037 4.87765 18.3152 3.26677 20.2306 3.26677H20.4745C22.3899 3.26677 24.0014 4.87765 25.3105 7.2695C26.6334 9.68646 27.8302 13.2186 28.84 17.8176C28.9554 18.343 28.641 18.8696 28.1333 18.9918C27.6201 19.1153 27.1157 18.778 27.0003 18.2529C26.0098 13.743 24.8643 10.4234 23.6726 8.24602C22.4233 5.96343 21.2973 5.2355 20.4745 5.2355L20.2306 5.2355C19.4078 5.2355 18.2818 5.96343 17.0325 8.24602C15.8408 10.4234 14.6953 13.743 13.7048 18.2529C13.5894 18.778 13.085 19.1153 12.5718 18.9918C12.0641 18.8696 11.7497 18.343 11.8651 17.8176C12.8749 13.2186 14.0717 9.68646 15.3946 7.2695Z" fill="#0083F5"/>
<path d="M9.6151 0.00012207L9.61567 4.33339H7.99099C7.26891 4.33339 6.81761 3.65848 7.17865 3.11856L8.84644 0.303738C9.02696 0.0337757 9.29919 0.000121915 9.6151 0.00012207Z" fill="white"/>
<path d="M49.9999 21.3334H45.8333V23.023C45.8333 23.774 46.4822 24.2434 47.0013 23.8679L49.7079 22.1334C49.9675 21.9456 49.9999 21.6619 49.9999 21.3334Z" fill="white"/>
</svg>
