<svg width="157" height="69" viewBox="0 0 157 69" fill="none" xmlns="http://www.w3.org/2000/svg">
<path d="M114.43 52.3727L114.417 52.3759C113.243 52.6575 111.95 52.7935 110.543 52.7935C108.675 52.7935 107.037 52.521 105.664 51.9326C104.321 51.3569 103.208 50.5494 102.356 49.4977L102.349 49.4889L102.342 49.4799C101.504 48.3958 100.929 47.109 100.598 45.6438L100.596 45.6372C100.275 44.1685 100.118 42.5572 100.118 40.8085V21.7885H97.1534C95.5959 21.7885 94.3334 20.5259 94.3334 18.9685C94.3334 17.4111 95.5959 16.1485 97.1534 16.1485H100.118V9.4785C100.118 7.74156 101.526 6.3335 103.263 6.3335C105 6.3335 106.408 7.74156 106.408 9.4785V16.1485H114.573C116.131 16.1485 117.393 17.4111 117.393 18.9685C117.393 20.5259 116.131 21.7885 114.573 21.7885H106.408V40.0935C106.408 41.0532 106.45 41.9904 106.532 42.9052C106.649 43.7477 106.877 44.4966 107.207 45.1606C107.511 45.7303 107.949 46.2063 108.541 46.5917C109.11 46.9364 109.946 47.1535 111.128 47.1535C111.857 47.1535 112.59 47.0584 113.327 46.8658C113.403 46.8429 113.476 46.8192 113.548 46.7947C114.226 46.5632 114.999 46.5198 115.708 46.698C116.423 46.8775 117.142 47.3038 117.565 48.0672C118.172 49.1659 117.961 50.7103 116.704 51.4304C115.983 51.8438 115.229 52.1577 114.443 52.3691L114.43 52.3727Z" fill="white"/>
<path fill-rule="evenodd" clip-rule="evenodd" d="M129.373 52.2411L129.355 52.2361C127.857 51.8149 126.492 51.1569 125.266 50.2609C124.018 49.3491 123.012 48.1971 122.25 46.8166L122.241 46.7988L122.232 46.7807C121.505 45.328 121.151 43.7208 121.151 41.9785C121.151 39.9069 121.542 38.0999 122.386 36.6105C123.195 35.1831 124.253 34.0236 125.561 33.1514L125.568 33.1468L125.575 33.1423C126.902 32.2893 128.405 31.705 130.072 31.3794C131.703 31.018 133.397 30.8385 135.151 30.8385H145.37C145.313 29.7241 145.157 28.6655 144.906 27.661L144.902 27.6467L144.899 27.6322C144.621 26.3616 144.151 25.2753 143.5 24.3565C142.864 23.4593 142.02 22.7409 140.944 22.2029L140.937 22.1996L140.931 22.1962C139.941 21.6829 138.658 21.3985 137.036 21.3985C136.267 21.3985 135.472 21.4591 134.653 21.5818C133.905 21.7002 133.177 21.8967 132.468 22.1719C131.842 22.4308 131.243 22.8034 130.671 23.2992L130.667 23.3028C130.465 23.4753 130.278 23.6659 130.104 23.8754C129.414 24.7052 128.352 25.4935 127.02 25.4935C125.898 25.4935 124.888 24.9445 124.321 24.1092C123.729 23.2394 123.633 22.0589 124.385 21.0404C124.593 20.7578 124.818 20.4897 125.06 20.2361C126.05 19.1538 127.206 18.2814 128.523 17.6222C129.864 16.9292 131.276 16.4432 132.757 16.1656L132.762 16.1646C134.248 15.8944 135.716 15.7585 137.166 15.7585C139.784 15.7585 142.063 16.1867 143.965 17.0902C145.838 17.9799 147.359 19.232 148.503 20.8481C149.675 22.3995 150.485 24.2171 150.945 26.2812C151.441 28.3148 151.686 30.4936 151.686 32.8135V49.5449C151.686 51.1237 150.406 52.4035 148.827 52.4035C147.379 52.4035 146.159 51.3198 145.989 49.8811L145.85 48.7112C144.477 49.9908 142.955 50.9464 141.284 51.5608C139.079 52.3874 136.663 52.7935 134.046 52.7935C132.452 52.7935 130.9 52.6113 129.39 52.2453L129.373 52.2411ZM130.55 37.1344L130.566 37.1285L130.582 37.122C131.561 36.7304 132.628 36.4913 133.789 36.4112C135.069 36.3258 136.26 36.2835 137.361 36.2835H145.396V37.6235C145.396 39.2868 145.112 40.7017 144.575 41.8919L144.571 41.8989L144.568 41.9059C144.067 43.063 143.338 44.0414 142.375 44.8512C141.453 45.6189 140.323 46.2093 138.964 46.6091L138.956 46.6115C137.631 47.0129 136.17 47.2185 134.566 47.2185C133.612 47.2185 132.681 47.0996 131.769 46.8623C130.935 46.6342 130.183 46.2769 129.508 45.7908C128.888 45.315 128.375 44.7309 127.967 44.0304C127.632 43.3855 127.441 42.5627 127.441 41.5235C127.441 40.2003 127.752 39.3105 128.245 38.7242C128.866 37.9933 129.629 37.4657 130.55 37.1344Z" fill="white"/>
<path fill-rule="evenodd" clip-rule="evenodd" d="M49.9505 14.9614C54.3566 7.17056 59.7404 2 66.0889 2H66.9111C73.2596 2 78.6434 7.17056 83.0495 14.9614C87.4948 22.8216 91.523 34.3214 94.9243 49.3124C95.2907 50.9274 94.2923 52.5461 92.6799 52.9216C91.0501 53.3011 89.4475 52.2645 89.0811 50.6503C85.7411 35.9337 81.8761 25.0877 77.8474 17.9641C73.6315 10.5097 69.79 8.0528 66.9111 8.0528H66.0889C63.21 8.0528 59.3685 10.5097 55.1526 17.9641C51.1239 25.0877 47.2589 35.9337 43.9189 50.6503C43.5525 52.2645 41.9499 53.3011 40.3201 52.9216C38.7077 52.5461 37.7093 50.9274 38.0757 49.3124C41.477 34.3214 45.5052 22.8216 49.9505 14.9614Z" fill="#0083F5"/>
<path d="M157 60.3335H143V65.825C143 68.2656 145.193 69.791 146.948 68.5707L156 62.9335C156.877 62.3234 157 61.4013 157 60.3335Z" fill="white"/>
<path fill-rule="evenodd" clip-rule="evenodd" d="M154.205 57H22V63H154.205C155.749 63 157 61.6569 157 60C157 58.3431 155.749 57 154.205 57Z" fill="white"/>
<path fill-rule="evenodd" clip-rule="evenodd" d="M18.8889 34C15.3865 34 12.0765 35.2722 9.676 37.4629C7.28465 39.6452 6 42.5432 6 45.5C6 48.4568 7.28465 51.3548 9.676 53.5371C12.0765 55.7278 15.3865 57 18.8889 57V63C13.9633 63 9.19047 61.2169 5.63149 57.969C2.06336 54.7128 0 50.2344 0 45.5C0 40.7656 2.06336 36.2872 5.63149 33.031C9.19047 29.7831 13.9633 28 18.8889 28H19.5C21.1569 28 22.5 29.3431 22.5 31C22.5 32.6569 21.1569 34 19.5 34H18.8889Z" fill="white"/>
<path d="M18.8889 57V63H25V57H18.8889Z" fill="white"/>
<path fill-rule="evenodd" clip-rule="evenodd" d="M30 53C28.3431 53 27 51.6569 27 50V3C27 1.34315 28.3431 7.24232e-08 30 0C31.6569 -7.2424e-08 33 1.34315 33 3V50C33 51.6569 31.6569 53 30 53Z" fill="white"/>
<path d="M30.2499 0V14.0832H24.7585C22.3178 14.0832 20.7924 11.8898 22.0127 10.1351L27.6499 0.986999C28.2601 0.109633 29.1821 -5.03998e-07 30.2499 0Z" fill="white"/>
</svg>
