<svg width="30" height="20" viewBox="0 0 30 20" fill="none" xmlns="http://www.w3.org/2000/svg">
<path d="M24.5932 4.33328C24.5932 6.72649 22.5367 8.66656 19.9998 8.66656C17.4629 8.66656 15.4063 6.72649 15.4063 4.33328C15.4063 1.94008 17.4629 0 19.9998 0C22.5367 0 24.5932 1.94008 24.5932 4.33328Z" fill="white"/>
<path d="M27.6152 20C29.0687 20 30.2633 18.8769 29.9495 17.5382C29.5061 15.646 28.5784 13.7641 27.2457 12.5042C25.324 10.6874 22.7177 9.66682 20 9.66682C17.2823 9.66682 14.676 10.6874 12.7543 12.5042C11.4216 13.7641 10.4939 15.646 10.0505 17.5382C9.73669 18.8769 10.9313 20 12.3848 20H27.6152Z" fill="white"/>
<path d="M4.50616 12.7846C4.7789 13.0718 5.2211 13.0718 5.49384 12.7846L9.79404 8.25565C10.234 7.79229 9.92241 7 9.3002 7H0.6998C0.0775924 7 -0.234011 7.79229 0.205957 8.25565L4.50616 12.7846Z" fill="white"/>
</svg>
