<svg width="14" height="14" viewBox="0 0 14 14" fill="none" xmlns="http://www.w3.org/2000/svg">
<path d="M0.583333 2.77092H2.17933C2.30454 3.23158 2.57785 3.63825 2.95711 3.92818C3.33636 4.21811 3.80049 4.3752 4.27788 4.3752C4.75526 4.3752 5.21939 4.21811 5.59864 3.92818C5.9779 3.63825 6.25121 3.23158 6.37642 2.77092H13.4167C13.5714 2.77092 13.7198 2.70946 13.8291 2.60007C13.9385 2.49067 14 2.3423 14 2.1876C14 2.03289 13.9385 1.88452 13.8291 1.77513C13.7198 1.66574 13.5714 1.60428 13.4167 1.60428H6.37642C6.25121 1.14361 5.9779 0.736945 5.59864 0.447014C5.21939 0.157083 4.75526 0 4.27788 0C3.80049 0 3.33636 0.157083 2.95711 0.447014C2.57785 0.736945 2.30454 1.14361 2.17933 1.60428H0.583333C0.428624 1.60428 0.280251 1.66574 0.170854 1.77513C0.0614582 1.88452 0 2.03289 0 2.1876C0 2.3423 0.0614582 2.49067 0.170854 2.60007C0.280251 2.70946 0.428624 2.77092 0.583333 2.77092ZM4.27758 1.16679C4.47949 1.16679 4.67685 1.22666 4.84473 1.33883C5.0126 1.45099 5.14345 1.61042 5.22071 1.79695C5.29798 1.98348 5.31819 2.18873 5.2788 2.38675C5.23941 2.58477 5.14219 2.76666 4.99942 2.90942C4.85666 3.05218 4.67476 3.1494 4.47674 3.18879C4.27872 3.22818 4.07346 3.20797 3.88693 3.1307C3.70039 3.05344 3.54096 2.9226 3.42879 2.75473C3.31662 2.58686 3.25675 2.3895 3.25675 2.1876C3.25706 1.91696 3.36471 1.65749 3.55609 1.46612C3.74746 1.27475 4.00694 1.1671 4.27758 1.16679Z" fill="#AFAFAF"/>
<path d="M13.4167 6.41666H11.8207C11.6957 5.95589 11.4225 5.54908 11.0432 5.25903C10.664 4.96897 10.1999 4.81182 9.72242 4.81182C9.24498 4.81182 8.78082 4.96897 8.40159 5.25903C8.02237 5.54908 7.74917 5.95589 7.62417 6.41666H0.583333C0.428624 6.41666 0.280251 6.47812 0.170854 6.58752C0.0614582 6.69691 0 6.84528 0 6.99998C0 7.15469 0.0614582 7.30306 0.170854 7.41245C0.280251 7.52185 0.428624 7.5833 0.583333 7.5833H7.62417C7.74917 8.04408 8.02237 8.45089 8.40159 8.74094C8.78082 9.03099 9.24498 9.18815 9.72242 9.18815C10.1999 9.18815 10.664 9.03099 11.0432 8.74094C11.4225 8.45089 11.6957 8.04408 11.8207 7.5833H13.4167C13.5714 7.5833 13.7198 7.52185 13.8291 7.41245C13.9385 7.30306 14 7.15469 14 6.99998C14 6.84528 13.9385 6.69691 13.8291 6.58752C13.7198 6.47812 13.5714 6.41666 13.4167 6.41666ZM9.72242 8.02079C9.52052 8.02079 9.32315 7.96092 9.15527 7.84876C8.9874 7.73659 8.85656 7.57716 8.77929 7.39063C8.70203 7.2041 8.68181 6.99885 8.7212 6.80083C8.76059 6.60282 8.85781 6.42093 9.00058 6.27816C9.14335 6.1354 9.32524 6.03818 9.52326 5.99879C9.72128 5.9594 9.92654 5.97962 10.1131 6.05688C10.2996 6.13414 10.459 6.26498 10.5712 6.43285C10.6834 6.60072 10.7433 6.79809 10.7433 6.99998C10.7429 7.27062 10.6353 7.53009 10.4439 7.72146C10.2525 7.91284 9.99306 8.02048 9.72242 8.02079Z" fill="#AFAFAF"/>
<path d="M13.4167 11.2291H6.37642C6.25121 10.7684 5.9779 10.3617 5.59864 10.0718C5.21939 9.78189 4.75526 9.6248 4.27788 9.6248C3.80049 9.6248 3.33636 9.78189 2.95711 10.0718C2.57785 10.3617 2.30454 10.7684 2.17933 11.2291H0.583333C0.428624 11.2291 0.280251 11.2905 0.170854 11.3999C0.0614582 11.5093 0 11.6577 0 11.8124C0 11.9671 0.0614582 12.1155 0.170854 12.2249C0.280251 12.3343 0.428624 12.3957 0.583333 12.3957H2.17933C2.30454 12.8564 2.57785 13.2631 2.95711 13.553C3.33636 13.8429 3.80049 14 4.27788 14C4.75526 14 5.21939 13.8429 5.59864 13.553C5.9779 13.2631 6.25121 12.8564 6.37642 12.3957H13.4167C13.5714 12.3957 13.7198 12.3343 13.8291 12.2249C13.9385 12.1155 14 11.9671 14 11.8124C14 11.6577 13.9385 11.5093 13.8291 11.3999C13.7198 11.2905 13.5714 11.2291 13.4167 11.2291ZM4.27758 12.8332C4.07568 12.8332 3.87831 12.7733 3.71044 12.6612C3.54256 12.549 3.41172 12.3896 3.33446 12.203C3.25719 12.0165 3.23698 11.8113 3.27637 11.6133C3.31575 11.4152 3.41298 11.2333 3.55575 11.0906C3.69851 10.9478 3.88041 10.8506 4.07843 10.8112C4.27645 10.7718 4.48171 10.792 4.66824 10.8693C4.85477 10.9466 5.0142 11.0774 5.12638 11.2453C5.23855 11.4131 5.29842 11.6105 5.29842 11.8124C5.29795 12.083 5.19025 12.3424 4.99891 12.5337C4.80757 12.725 4.54818 12.8327 4.27758 12.8332Z" fill="#AFAFAF"/>
</svg>
