<svg width="13" height="13" viewBox="0 0 13 13" fill="none" xmlns="http://www.w3.org/2000/svg">
<path fill-rule="evenodd" clip-rule="evenodd" d="M12.6695 11.0738L10.2387 8.64303C10.2231 8.62744 10.2048 8.61654 10.1885 8.60203C10.7657 7.72649 11.1026 6.67843 11.1026 5.55135C11.1026 2.48541 8.61719 0 5.5513 0C2.48541 0 2.08616e-07 2.48541 2.08616e-07 5.5513C2.08616e-07 8.61713 2.48536 11.1026 5.55125 11.1026C6.67838 11.1026 7.72638 10.7657 8.60192 10.1885C8.61643 10.2048 8.62728 10.2231 8.64287 10.2387L11.0738 12.6695C11.5144 13.1101 12.2288 13.1102 12.6695 12.6695C13.1102 12.2289 13.1102 11.5145 12.6695 11.0738ZM5.5513 9.17814C3.54819 9.17814 1.92441 7.55435 1.92441 5.5513C1.92441 3.54819 3.54824 1.92441 5.5513 1.92441C7.5543 1.92441 9.17814 3.54824 9.17814 5.5513C9.17814 7.55435 7.5543 9.17814 5.5513 9.17814Z" fill="#AFAFAF"/>
</svg>
