<svg width="14" height="14" viewBox="0 0 14 14" fill="none" xmlns="http://www.w3.org/2000/svg">
<path d="M11.0833 0H2.91667C1.30842 0 0 1.30842 0 2.91667V11.0833C0 12.6916 1.30842 14 2.91667 14H11.0833C12.6916 14 14 12.6916 14 11.0833V2.91667C14 1.30842 12.6916 0 11.0833 0ZM12.8333 11.0833C12.8333 12.0482 12.0482 12.8333 11.0833 12.8333H2.91667C1.95183 12.8333 1.16667 12.0482 1.16667 11.0833V2.91667C1.16667 1.95183 1.95183 1.16667 2.91667 1.16667H11.0833C12.0482 1.16667 12.8333 1.95183 12.8333 2.91667V11.0833ZM6.70833 6.44642C6.552 6.44642 6.39683 6.38458 6.2825 6.2615L5.25 5.15667V9.91725C5.25 10.2392 4.98925 10.5006 4.66667 10.5006C4.34408 10.5006 4.08333 10.2392 4.08333 9.91725V5.12983L2.96683 6.24633C2.73875 6.47442 2.37008 6.47442 2.142 6.24633C1.91392 6.01825 1.91392 5.64958 2.142 5.4215L3.63592 3.92758C3.90833 3.65517 4.37558 3.50058 4.66725 3.50058C4.95892 3.50058 5.42558 3.65517 5.69858 3.92758L7.13533 5.46525C7.35525 5.70033 7.34242 6.06958 7.10733 6.29008C6.99533 6.39508 6.85183 6.447 6.70892 6.447L6.70833 6.44642ZM11.858 7.75425C12.0861 7.98233 12.0861 8.351 11.858 8.57908L10.3641 10.073C10.0917 10.3454 9.62442 10.5 9.33275 10.5C9.04108 10.5 8.57442 10.3454 8.30142 10.073L6.8075 8.57908C6.57942 8.351 6.57942 7.98233 6.8075 7.75425C7.03558 7.52617 7.40425 7.52617 7.63233 7.75425L8.74883 8.87075V4.08333C8.74883 3.76133 9.00958 3.5 9.33217 3.5C9.65475 3.5 9.9155 3.76133 9.9155 4.08333V8.87075L11.032 7.75425C11.2601 7.52617 11.6287 7.52617 11.8568 7.75425H11.858Z" fill="#AFAFAF"/>
</svg>
