<svg width="22" height="22" viewBox="0 0 22 22" fill="none" xmlns="http://www.w3.org/2000/svg">
<path d="M20.7326 12.5997L20.2885 12.3609C19.7599 12.0772 19.4441 11.5681 19.4441 11C19.4441 10.4319 19.7599 9.92278 20.2885 9.63914L20.7326 9.40029C21.9452 8.74814 22.3598 7.30871 21.6598 6.18043L20.8154 4.81957C20.1171 3.69364 18.5643 3.30707 17.3552 3.95686L16.911 4.19493C16.3824 4.47936 15.75 4.47936 15.2223 4.19493C14.6937 3.9105 14.3779 3.40214 14.3779 2.83407V2.35714C14.3779 1.05757 13.2414 0 11.8448 0H10.1561C8.75946 0 7.62294 1.05757 7.62294 2.35714V2.83486C7.62294 3.40293 7.30714 3.91129 6.77857 4.19571C6.24999 4.47936 5.6184 4.48014 5.08982 4.19571L4.64568 3.95686C3.43654 3.30707 1.88374 3.69364 1.18461 4.81957L0.340234 6.18043C-0.35975 7.30871 0.0548365 8.74893 1.26735 9.40029L1.71234 9.63914C2.24091 9.92278 2.55671 10.4319 2.55671 11C2.55671 11.5681 2.24091 12.0772 1.71234 12.3609L1.2682 12.5997C0.0556808 13.2511 -0.358906 14.6913 0.341078 15.8196L1.18545 17.1804C1.88459 18.3064 3.43739 18.6929 4.64568 18.0431L5.08982 17.8051C5.6184 17.5199 6.24999 17.5214 6.77857 17.8051C7.30714 18.0895 7.62294 18.5979 7.62294 19.1659V19.6429C7.62294 20.9424 8.75946 22 10.1561 22H11.8448C13.2414 22 14.3779 20.9424 14.3779 19.6429V19.1651C14.3779 18.5971 14.6937 18.0887 15.2223 17.8043C15.75 17.5206 16.3824 17.5199 16.911 17.8043L17.3552 18.0431C18.5643 18.6921 20.1171 18.3056 20.8154 17.1804L21.6598 15.8196C22.3598 14.6913 21.9452 13.2511 20.7326 12.5997ZM11.0004 14.9286C8.67249 14.9286 6.77857 13.1662 6.77857 11C6.77857 8.83379 8.67249 7.07143 11.0004 7.07143C13.3284 7.07143 15.2223 8.83379 15.2223 11C15.2223 13.1662 13.3284 14.9286 11.0004 14.9286Z" fill="#0083F5"/>
</svg>
